<svg width="359" height="43" viewBox="0 0 359 43" fill="none" xmlns="http://www.w3.org/2000/svg">
<path d="M14.5001 16H14.0001V16.5V21.5C14.0001 21.7738 13.774 22 13.5001 22H10.5001C10.2262 22 10.0001 21.7738 10.0001 21.5V14.5V14H9.5001H7.80641L16.1635 6.47259C16.1637 6.47241 16.1639 6.47224 16.1641 6.47206C16.3541 6.30261 16.6461 6.30261 16.8361 6.47206C16.8363 6.47224 16.8365 6.47241 16.8367 6.47259L25.1938 14H23.5001H23.0001V14.5V21.5C23.0001 21.7738 22.774 22 22.5001 22H19.5001C19.2262 22 19.0001 21.7738 19.0001 21.5V16.5V16H18.5001H14.5001Z" stroke="black" stroke-opacity="0.65" style="stroke:black;stroke-opacity:0.65;"/>
<path d="M8.6051 31.227V37.5H7.7861V34.656H4.5911V37.5H3.7721V31.227H4.5911V33.981H7.7861V31.227H8.6051ZM12.1545 37.581C11.6925 37.581 11.2725 37.476 10.8945 37.266C10.5225 37.056 10.2285 36.759 10.0125 36.375C9.80255 35.985 9.69755 35.535 9.69755 35.025C9.69755 34.521 9.80555 34.077 10.0215 33.693C10.2435 33.303 10.5435 33.006 10.9215 32.802C11.2995 32.592 11.7225 32.487 12.1905 32.487C12.6585 32.487 13.0815 32.592 13.4595 32.802C13.8375 33.006 14.1345 33.3 14.3505 33.684C14.5725 34.068 14.6835 34.515 14.6835 35.025C14.6835 35.535 14.5695 35.985 14.3415 36.375C14.1195 36.759 13.8165 37.056 13.4325 37.266C13.0485 37.476 12.6225 37.581 12.1545 37.581ZM12.1545 36.861C12.4485 36.861 12.7245 36.792 12.9825 36.654C13.2405 36.516 13.4475 36.309 13.6035 36.033C13.7655 35.757 13.8465 35.421 13.8465 35.025C13.8465 34.629 13.7685 34.293 13.6125 34.017C13.4565 33.741 13.2525 33.537 13.0005 33.405C12.7485 33.267 12.4755 33.198 12.1815 33.198C11.8815 33.198 11.6055 33.267 11.3535 33.405C11.1075 33.537 10.9095 33.741 10.7595 34.017C10.6095 34.293 10.5345 34.629 10.5345 35.025C10.5345 35.427 10.6065 35.766 10.7505 36.042C10.9005 36.318 11.0985 36.525 11.3445 36.663C11.5905 36.795 11.8605 36.861 12.1545 36.861ZM21.6914 32.478C22.0754 32.478 22.4174 32.559 22.7174 32.721C23.0174 32.877 23.2544 33.114 23.4284 33.432C23.6024 33.75 23.6894 34.137 23.6894 34.593V37.5H22.8794V34.71C22.8794 34.218 22.7564 33.843 22.5104 33.585C22.2704 33.321 21.9434 33.189 21.5294 33.189C21.1034 33.189 20.7644 33.327 20.5124 33.603C20.2604 33.873 20.1344 34.266 20.1344 34.782V37.5H19.3244V34.71C19.3244 34.218 19.2014 33.843 18.9554 33.585C18.7154 33.321 18.3884 33.189 17.9744 33.189C17.5484 33.189 17.2094 33.327 16.9574 33.603C16.7054 33.873 16.5794 34.266 16.5794 34.782V37.5H15.7604V32.568H16.5794V33.279C16.7414 33.021 16.9574 32.823 17.2274 32.685C17.5034 32.547 17.8064 32.478 18.1364 32.478C18.5504 32.478 18.9164 32.571 19.2344 32.757C19.5524 32.943 19.7894 33.216 19.9454 33.576C20.0834 33.228 20.3114 32.958 20.6294 32.766C20.9474 32.574 21.3014 32.478 21.6914 32.478ZM29.5328 34.845C29.5328 35.001 29.5238 35.166 29.5058 35.34H25.5638C25.5938 35.826 25.7588 36.207 26.0588 36.483C26.3648 36.753 26.7338 36.888 27.1658 36.888C27.5198 36.888 27.8138 36.807 28.0478 36.645C28.2878 36.477 28.4558 36.255 28.5518 35.979H29.4338C29.3018 36.453 29.0378 36.84 28.6418 37.14C28.2458 37.434 27.7538 37.581 27.1658 37.581C26.6978 37.581 26.2778 37.476 25.9058 37.266C25.5398 37.056 25.2518 36.759 25.0418 36.375C24.8318 35.985 24.7268 35.535 24.7268 35.025C24.7268 34.515 24.8288 34.068 25.0328 33.684C25.2368 33.3 25.5218 33.006 25.8878 32.802C26.2598 32.592 26.6858 32.487 27.1658 32.487C27.6338 32.487 28.0478 32.589 28.4078 32.793C28.7678 32.997 29.0438 33.279 29.2358 33.639C29.4338 33.993 29.5328 34.395 29.5328 34.845ZM28.6868 34.674C28.6868 34.362 28.6178 34.095 28.4798 33.873C28.3418 33.645 28.1528 33.474 27.9128 33.36C27.6788 33.24 27.4178 33.18 27.1298 33.18C26.7158 33.18 26.3618 33.312 26.0678 33.576C25.7798 33.84 25.6148 34.206 25.5728 34.674H28.6868Z" fill="black" fill-opacity="0.8" style="fill:black;fill-opacity:0.8;"/>
<path d="M94.1301 9.51698L98.9041 10.788M93.1081 13.313L95.4941 13.949M93.2271 20.466L94.1811 20.721C96.8811 21.441 98.2311 21.8 99.2951 21.189C100.358 20.579 100.72 19.236 101.443 16.552L102.466 12.755C103.19 10.07 103.551 8.72799 102.937 7.66999C102.323 6.61199 100.974 6.25298 98.2731 5.53398L97.3191 5.27898C94.6191 4.55898 93.2691 4.19998 92.2061 4.81098C91.1421 5.42099 90.7801 6.76398 90.0561 9.44798L89.0341 13.245C88.3101 15.93 87.9481 17.272 88.5631 18.33C89.1771 19.387 90.5271 19.747 93.2271 20.466Z" stroke="black" stroke-opacity="0.56" style="stroke:black;stroke-opacity:0.56;" stroke-linecap="round" stroke-linejoin="round"/>
<path d="M93.25 23.4459L92.298 23.7059C89.604 24.4389 88.258 24.8059 87.196 24.1829C86.136 23.5609 85.774 22.1929 85.053 19.4549L84.032 15.5829C83.31 12.8459 82.949 11.4769 83.562 10.3989C84.092 9.46591 85.25 9.49991 86.75 9.49991" stroke="black" stroke-opacity="0.56" style="stroke:black;stroke-opacity:0.56;" stroke-linecap="round" stroke-linejoin="round"/>
<path d="M83.7314 34.5073H82.1099L82.1011 33.8262H83.5732C83.8164 33.8262 84.0288 33.7852 84.2104 33.7031C84.3921 33.6211 84.5327 33.5039 84.6323 33.3516C84.7349 33.1963 84.7861 33.0117 84.7861 32.7979C84.7861 32.5635 84.7407 32.373 84.6499 32.2266C84.562 32.0771 84.4258 31.9688 84.2412 31.9014C84.0596 31.8311 83.8281 31.7959 83.5469 31.7959H82.2988V37.5H81.4507V31.1016H83.5469C83.875 31.1016 84.168 31.1353 84.4258 31.2026C84.6836 31.2671 84.9019 31.3696 85.0806 31.5103C85.2622 31.6479 85.3999 31.8237 85.4937 32.0376C85.5874 32.2515 85.6343 32.5078 85.6343 32.8066C85.6343 33.0703 85.5669 33.3091 85.4321 33.5229C85.2974 33.7339 85.1099 33.9067 84.8696 34.0415C84.6323 34.1763 84.354 34.2627 84.0347 34.3008L83.7314 34.5073ZM83.6919 37.5H81.7759L82.2549 36.8101H83.6919C83.9614 36.8101 84.1899 36.7632 84.3774 36.6694C84.5679 36.5757 84.7129 36.4438 84.8125 36.2739C84.9121 36.1011 84.9619 35.8975 84.9619 35.6631C84.9619 35.4258 84.9194 35.2207 84.8345 35.0479C84.7495 34.875 84.6162 34.7417 84.4346 34.6479C84.2529 34.5542 84.0186 34.5073 83.7314 34.5073H82.5229L82.5317 33.8262H84.1841L84.3643 34.0723C84.6719 34.0986 84.9326 34.1865 85.1465 34.3359C85.3604 34.4824 85.5229 34.6699 85.6343 34.8984C85.7485 35.127 85.8057 35.3789 85.8057 35.6543C85.8057 36.0527 85.7178 36.3896 85.542 36.665C85.3691 36.9375 85.1245 37.1455 84.8081 37.2891C84.4917 37.4297 84.1196 37.5 83.6919 37.5ZM86.7197 35.1753V35.0742C86.7197 34.7314 86.7695 34.4136 86.8691 34.1206C86.9688 33.8247 87.1123 33.5684 87.2998 33.3516C87.4873 33.1318 87.7144 32.9619 87.981 32.8418C88.2476 32.7188 88.5464 32.6572 88.8774 32.6572C89.2114 32.6572 89.5117 32.7188 89.7783 32.8418C90.0479 32.9619 90.2764 33.1318 90.4639 33.3516C90.6543 33.5684 90.7993 33.8247 90.8989 34.1206C90.9985 34.4136 91.0483 34.7314 91.0483 35.0742V35.1753C91.0483 35.5181 90.9985 35.8359 90.8989 36.1289C90.7993 36.4219 90.6543 36.6782 90.4639 36.8979C90.2764 37.1147 90.0493 37.2847 89.7827 37.4077C89.519 37.5278 89.2202 37.5879 88.8862 37.5879C88.5522 37.5879 88.252 37.5278 87.9854 37.4077C87.7188 37.2847 87.4902 37.1147 87.2998 36.8979C87.1123 36.6782 86.9688 36.4219 86.8691 36.1289C86.7695 35.8359 86.7197 35.5181 86.7197 35.1753ZM87.5327 35.0742V35.1753C87.5327 35.4126 87.5605 35.6367 87.6162 35.8477C87.6719 36.0557 87.7554 36.2402 87.8667 36.4014C87.981 36.5625 88.123 36.6899 88.293 36.7837C88.4629 36.8745 88.6606 36.9199 88.8862 36.9199C89.1089 36.9199 89.3037 36.8745 89.4707 36.7837C89.6406 36.6899 89.7812 36.5625 89.8926 36.4014C90.0039 36.2402 90.0874 36.0557 90.1431 35.8477C90.2017 35.6367 90.231 35.4126 90.231 35.1753V35.0742C90.231 34.8398 90.2017 34.6187 90.1431 34.4106C90.0874 34.1997 90.0024 34.0137 89.8882 33.8525C89.7769 33.6885 89.6362 33.5596 89.4663 33.4658C89.2993 33.3721 89.103 33.3252 88.8774 33.3252C88.6548 33.3252 88.4585 33.3721 88.2886 33.4658C88.1216 33.5596 87.981 33.6885 87.8667 33.8525C87.7554 34.0137 87.6719 34.1997 87.6162 34.4106C87.5605 34.6187 87.5327 34.8398 87.5327 35.0742ZM91.8525 35.1753V35.0742C91.8525 34.7314 91.9023 34.4136 92.002 34.1206C92.1016 33.8247 92.2451 33.5684 92.4326 33.3516C92.6201 33.1318 92.8472 32.9619 93.1138 32.8418C93.3804 32.7188 93.6792 32.6572 94.0103 32.6572C94.3442 32.6572 94.6445 32.7188 94.9111 32.8418C95.1807 32.9619 95.4092 33.1318 95.5967 33.3516C95.7871 33.5684 95.9321 33.8247 96.0317 34.1206C96.1313 34.4136 96.1812 34.7314 96.1812 35.0742V35.1753C96.1812 35.5181 96.1313 35.8359 96.0317 36.1289C95.9321 36.4219 95.7871 36.6782 95.5967 36.8979C95.4092 37.1147 95.1821 37.2847 94.9155 37.4077C94.6519 37.5278 94.353 37.5879 94.019 37.5879C93.6851 37.5879 93.3848 37.5278 93.1182 37.4077C92.8516 37.2847 92.623 37.1147 92.4326 36.8979C92.2451 36.6782 92.1016 36.4219 92.002 36.1289C91.9023 35.8359 91.8525 35.5181 91.8525 35.1753ZM92.6655 35.0742V35.1753C92.6655 35.4126 92.6934 35.6367 92.749 35.8477C92.8047 36.0557 92.8882 36.2402 92.9995 36.4014C93.1138 36.5625 93.2559 36.6899 93.4258 36.7837C93.5957 36.8745 93.7935 36.9199 94.019 36.9199C94.2417 36.9199 94.4365 36.8745 94.6035 36.7837C94.7734 36.6899 94.9141 36.5625 95.0254 36.4014C95.1367 36.2402 95.2202 36.0557 95.2759 35.8477C95.3345 35.6367 95.3638 35.4126 95.3638 35.1753V35.0742C95.3638 34.8398 95.3345 34.6187 95.2759 34.4106C95.2202 34.1997 95.1353 34.0137 95.021 33.8525C94.9097 33.6885 94.769 33.5596 94.5991 33.4658C94.4321 33.3721 94.2358 33.3252 94.0103 33.3252C93.7876 33.3252 93.5913 33.3721 93.4214 33.4658C93.2544 33.5596 93.1138 33.6885 92.9995 33.8525C92.8882 34.0137 92.8047 34.1997 92.749 34.4106C92.6934 34.6187 92.6655 34.8398 92.6655 35.0742ZM98.0181 30.75V37.5H97.2007V30.75H98.0181ZM100.923 32.7451L98.8486 34.9644L97.6885 36.1685L97.6226 35.3027L98.4531 34.3096L99.9297 32.7451H100.923ZM100.18 37.5L98.4839 35.2324L98.9058 34.5073L101.138 37.5H100.18ZM104.531 36.2388C104.531 36.1216 104.504 36.0132 104.452 35.9136C104.402 35.811 104.298 35.7188 104.14 35.6367C103.984 35.5518 103.75 35.4785 103.437 35.417C103.173 35.3613 102.934 35.2954 102.72 35.2192C102.509 35.1431 102.329 35.0508 102.18 34.9424C102.033 34.834 101.92 34.7065 101.841 34.5601C101.762 34.4136 101.723 34.2422 101.723 34.0459C101.723 33.8584 101.764 33.6812 101.846 33.5142C101.931 33.3472 102.049 33.1992 102.202 33.0703C102.357 32.9414 102.543 32.8403 102.76 32.7671C102.977 32.6938 103.218 32.6572 103.485 32.6572C103.866 32.6572 104.191 32.7246 104.46 32.8594C104.73 32.9941 104.937 33.1743 105.08 33.3999C105.224 33.6226 105.295 33.8701 105.295 34.1426H104.482C104.482 34.0107 104.443 33.8833 104.364 33.7603C104.288 33.6343 104.175 33.5303 104.025 33.4482C103.879 33.3662 103.699 33.3252 103.485 33.3252C103.259 33.3252 103.076 33.3604 102.936 33.4307C102.798 33.498 102.697 33.5845 102.632 33.6899C102.571 33.7954 102.54 33.9067 102.54 34.0239C102.54 34.1118 102.555 34.1909 102.584 34.2612C102.616 34.3286 102.672 34.3916 102.751 34.4502C102.83 34.5059 102.941 34.5586 103.085 34.6084C103.229 34.6582 103.412 34.708 103.634 34.7578C104.024 34.8457 104.345 34.9512 104.597 35.0742C104.849 35.1973 105.036 35.3481 105.159 35.5269C105.282 35.7056 105.344 35.9224 105.344 36.1772C105.344 36.3853 105.3 36.5757 105.212 36.7485C105.127 36.9214 105.002 37.0708 104.838 37.1968C104.677 37.3198 104.484 37.4165 104.258 37.4868C104.036 37.5542 103.785 37.5879 103.507 37.5879C103.088 37.5879 102.733 37.5132 102.443 37.3638C102.153 37.2144 101.934 37.021 101.784 36.7837C101.635 36.5464 101.56 36.2959 101.56 36.0322H102.377C102.389 36.2549 102.454 36.4321 102.571 36.564C102.688 36.6929 102.832 36.7852 103.001 36.8408C103.171 36.8936 103.34 36.9199 103.507 36.9199C103.729 36.9199 103.916 36.8906 104.065 36.832C104.217 36.7734 104.333 36.6929 104.412 36.5903C104.491 36.4878 104.531 36.3706 104.531 36.2388Z" fill="black" fill-opacity="0.8" style="fill:black;fill-opacity:0.8;"/>
<path d="M170.559 7.99512C171.157 6.24512 173.575 6.19212 174.284 7.83612L174.344 7.99612L175.151 10.3561C175.336 10.8974 175.635 11.3926 176.028 11.8085C176.42 12.2245 176.898 12.5513 177.427 12.7671L177.644 12.8481L180.004 13.6541C181.754 14.2521 181.807 16.6701 180.164 17.3791L180.004 17.4391L177.644 18.2461C177.103 18.4309 176.607 18.7297 176.191 19.1224C175.775 19.515 175.448 19.9923 175.232 20.5221L175.151 20.7381L174.345 23.0991C173.747 24.8491 171.329 24.9021 170.621 23.2591L170.559 23.0991L169.753 20.7391C169.568 20.1977 169.27 19.7022 168.877 19.2861C168.484 18.87 168.007 18.543 167.477 18.3271L167.261 18.2461L164.901 17.4401C163.15 16.8421 163.097 14.4241 164.741 13.7161L164.901 13.6541L167.261 12.8481C167.802 12.6632 168.298 12.3643 168.714 11.9717C169.13 11.5791 169.456 11.1018 169.672 10.5721L169.753 10.3561L170.559 7.99512ZM172.452 8.64112L171.646 11.0011C171.365 11.8264 170.907 12.5804 170.304 13.2106C169.701 13.8408 168.968 14.332 168.156 14.6501L167.906 14.7411L165.546 15.5471L167.906 16.3531C168.732 16.6347 169.486 17.0929 170.116 17.6956C170.746 18.2983 171.237 19.0312 171.555 19.8431L171.646 20.0931L172.452 22.4531L173.258 20.0931C173.54 19.2678 173.998 18.5138 174.601 17.8836C175.203 17.2534 175.936 16.7622 176.748 16.4441L176.998 16.3541L179.358 15.5471L176.998 14.7411C176.173 14.4595 175.419 14.0014 174.789 13.3987C174.159 12.7959 173.667 12.0631 173.349 11.2511L173.259 11.0011L172.452 8.64112ZM180.452 4.54712C180.639 4.54712 180.823 4.5996 180.981 4.69859C181.14 4.79758 181.268 4.93912 181.35 5.10712L181.398 5.22412L181.748 6.25012L182.775 6.60012C182.963 6.66381 183.127 6.78173 183.247 6.93893C183.368 7.09613 183.439 7.28554 183.452 7.48314C183.464 7.68074 183.418 7.87765 183.318 8.04891C183.219 8.22016 183.071 8.35806 182.893 8.44512L182.775 8.49312L181.749 8.84312L181.399 9.87012C181.335 10.0575 181.217 10.2218 181.06 10.3421C180.903 10.4624 180.713 10.5333 180.516 10.5458C180.318 10.5584 180.121 10.512 179.95 10.4125C179.779 10.313 179.641 10.165 179.554 9.98712L179.506 9.87012L179.156 8.84412L178.129 8.49412C177.942 8.43042 177.777 8.3125 177.657 8.1553C177.537 7.9981 177.466 7.8087 177.453 7.6111C177.44 7.4135 177.487 7.21659 177.586 7.04533C177.685 6.87408 177.833 6.73618 178.011 6.64912L178.129 6.60112L179.155 6.25112L179.505 5.22412C179.573 5.02654 179.7 4.85503 179.87 4.73362C180.04 4.61221 180.243 4.54699 180.452 4.54712Z" fill="#7B7B7B" style="fill:#7B7B7B;fill:color(display-p3 0.4804 0.4804 0.4804);fill-opacity:1;"/>
<path d="M162.004 29.6211L159.886 35.4526H159.02L161.459 29.0542H162.017L162.004 29.6211ZM163.779 35.4526L161.657 29.6211L161.644 29.0542H162.202L164.649 35.4526H163.779ZM163.669 33.084V33.7783H160.075V33.084H163.669ZM166.416 29.0542V35.4526H165.568V29.0542H166.416ZM174.054 33.418H174.897C174.854 33.8223 174.738 34.1841 174.55 34.5034C174.363 34.8228 174.098 35.0762 173.755 35.2637C173.412 35.4482 172.984 35.5405 172.472 35.5405C172.097 35.5405 171.755 35.4702 171.448 35.3296C171.143 35.189 170.881 34.9897 170.661 34.7319C170.441 34.4712 170.271 34.1592 170.151 33.7959C170.034 33.4297 169.976 33.0225 169.976 32.5742V31.937C169.976 31.4888 170.034 31.083 170.151 30.7197C170.271 30.3535 170.443 30.04 170.666 29.7793C170.891 29.5186 171.162 29.3179 171.479 29.1772C171.795 29.0366 172.151 28.9663 172.546 28.9663C173.03 28.9663 173.438 29.0571 173.772 29.2388C174.106 29.4204 174.366 29.6724 174.55 29.9946C174.738 30.314 174.854 30.6846 174.897 31.1064H174.054C174.013 30.8076 173.937 30.5513 173.825 30.3374C173.714 30.1206 173.556 29.9536 173.351 29.8364C173.146 29.7192 172.877 29.6606 172.546 29.6606C172.262 29.6606 172.012 29.7148 171.795 29.8232C171.581 29.9316 171.401 30.0854 171.254 30.2847C171.111 30.4839 171.002 30.7227 170.929 31.001C170.856 31.2793 170.819 31.5884 170.819 31.9282V32.5742C170.819 32.8877 170.852 33.1821 170.916 33.4575C170.983 33.7329 171.084 33.9746 171.219 34.1826C171.354 34.3906 171.525 34.5547 171.733 34.6748C171.941 34.792 172.188 34.8506 172.472 34.8506C172.832 34.8506 173.119 34.7935 173.333 34.6792C173.547 34.5649 173.708 34.4009 173.816 34.187C173.928 33.9731 174.007 33.7168 174.054 33.418ZM176.743 28.7026V35.4526H175.93V28.7026H176.743ZM176.55 32.895L176.211 32.8818C176.214 32.5566 176.263 32.2563 176.356 31.981C176.45 31.7026 176.582 31.4609 176.752 31.2559C176.922 31.0508 177.124 30.8926 177.358 30.7812C177.596 30.667 177.858 30.6099 178.145 30.6099C178.379 30.6099 178.59 30.6421 178.778 30.7065C178.965 30.7681 179.125 30.8677 179.257 31.0054C179.392 31.1431 179.494 31.3218 179.564 31.5415C179.635 31.7583 179.67 32.0234 179.67 32.3369V35.4526H178.853V32.3281C178.853 32.0791 178.816 31.8799 178.743 31.7305C178.669 31.5781 178.562 31.4683 178.422 31.4009C178.281 31.3306 178.108 31.2954 177.903 31.2954C177.701 31.2954 177.517 31.3379 177.35 31.4229C177.186 31.5078 177.043 31.625 176.923 31.7744C176.806 31.9238 176.714 32.0952 176.646 32.2886C176.582 32.479 176.55 32.6812 176.55 32.895ZM183.691 34.6396V32.1919C183.691 32.0044 183.653 31.8418 183.577 31.7041C183.503 31.5635 183.392 31.4551 183.243 31.3789C183.093 31.3027 182.909 31.2646 182.689 31.2646C182.484 31.2646 182.304 31.2998 182.148 31.3701C181.996 31.4404 181.876 31.5327 181.788 31.647C181.703 31.7612 181.661 31.8843 181.661 32.0161H180.848C180.848 31.8462 180.892 31.6777 180.979 31.5107C181.067 31.3438 181.193 31.1929 181.357 31.0581C181.524 30.9204 181.724 30.812 181.955 30.7329C182.189 30.6509 182.45 30.6099 182.737 30.6099C183.083 30.6099 183.388 30.6685 183.651 30.7856C183.918 30.9028 184.126 31.0801 184.275 31.3174C184.428 31.5518 184.504 31.8462 184.504 32.2007V34.4155C184.504 34.5737 184.517 34.7422 184.543 34.9209C184.573 35.0996 184.615 35.2534 184.671 35.3823V35.4526H183.823C183.782 35.3589 183.75 35.2344 183.726 35.0791C183.703 34.9209 183.691 34.7744 183.691 34.6396ZM183.832 32.5698L183.84 33.1411H183.019C182.787 33.1411 182.581 33.1602 182.399 33.1982C182.217 33.2334 182.065 33.2876 181.942 33.3608C181.819 33.4341 181.725 33.5264 181.661 33.6377C181.596 33.7461 181.564 33.8735 181.564 34.02C181.564 34.1694 181.598 34.3057 181.665 34.4287C181.732 34.5518 181.833 34.6499 181.968 34.7231C182.106 34.7935 182.274 34.8286 182.474 34.8286C182.723 34.8286 182.942 34.7759 183.133 34.6704C183.323 34.5649 183.474 34.436 183.585 34.2837C183.7 34.1313 183.761 33.9834 183.77 33.8398L184.117 34.231C184.097 34.354 184.041 34.4902 183.95 34.6396C183.859 34.7891 183.738 34.9326 183.585 35.0703C183.436 35.2051 183.257 35.3179 183.049 35.4087C182.844 35.4966 182.613 35.5405 182.355 35.5405C182.033 35.5405 181.75 35.4775 181.507 35.3516C181.267 35.2256 181.079 35.0571 180.944 34.8462C180.812 34.6323 180.747 34.3936 180.747 34.1299C180.747 33.875 180.796 33.6509 180.896 33.4575C180.996 33.2612 181.139 33.0986 181.327 32.9697C181.514 32.8379 181.74 32.7383 182.003 32.6709C182.267 32.6035 182.562 32.5698 182.887 32.5698H183.832ZM187.773 30.6978V31.3218H185.203V30.6978H187.773ZM186.073 29.542H186.886V34.2749C186.886 34.436 186.911 34.5576 186.96 34.6396C187.01 34.7217 187.075 34.7759 187.154 34.8022C187.233 34.8286 187.318 34.8418 187.409 34.8418C187.476 34.8418 187.546 34.8359 187.62 34.8242C187.696 34.8096 187.753 34.7979 187.791 34.7891L187.795 35.4526C187.731 35.4731 187.646 35.4922 187.541 35.5098C187.438 35.5303 187.313 35.5405 187.167 35.5405C186.968 35.5405 186.785 35.501 186.618 35.4219C186.451 35.3428 186.317 35.2109 186.218 35.0264C186.121 34.8389 186.073 34.5869 186.073 34.2705V29.542Z" fill="black" fill-opacity="0.8" style="fill:black;fill-opacity:0.8;"/>
<g clip-path="url(#clip0_574_2158)">
<path d="M252.25 20.5V19.5C252.25 18.1739 252.777 16.9021 253.714 15.9645C254.652 15.0268 255.924 14.5 257.25 14.5M257.25 14.5C258.576 14.5 259.848 15.0268 260.786 15.9645C261.723 16.9021 262.25 18.1739 262.25 19.5V20.5M257.25 14.5C258.046 14.5 258.809 14.1839 259.371 13.6213C259.934 13.0587 260.25 12.2956 260.25 11.5C260.25 10.7044 259.934 9.94129 259.371 9.37868C258.809 8.81607 258.046 8.5 257.25 8.5C256.454 8.5 255.691 8.81607 255.129 9.37868C254.566 9.94129 254.25 10.7044 254.25 11.5C254.25 12.2956 254.566 13.0587 255.129 13.6213C255.691 14.1839 256.454 14.5 257.25 14.5ZM246.25 20.5V19.5C246.25 18.7044 246.566 17.9413 247.129 17.3787C247.691 16.8161 248.454 16.5 249.25 16.5M249.25 16.5C249.78 16.5 250.289 16.2893 250.664 15.9142C251.039 15.5391 251.25 15.0304 251.25 14.5C251.25 13.9696 251.039 13.4609 250.664 13.0858C250.289 12.7107 249.78 12.5 249.25 12.5C248.72 12.5 248.211 12.7107 247.836 13.0858C247.461 13.4609 247.25 13.9696 247.25 14.5C247.25 15.0304 247.461 15.5391 247.836 15.9142C248.211 16.2893 248.72 16.5 249.25 16.5ZM268.25 20.5V19.5C268.25 18.7044 267.934 17.9413 267.371 17.3787C266.809 16.8161 266.046 16.5 265.25 16.5M265.25 16.5C265.78 16.5 266.289 16.2893 266.664 15.9142C267.039 15.5391 267.25 15.0304 267.25 14.5C267.25 13.9696 267.039 13.4609 266.664 13.0858C266.289 12.7107 265.78 12.5 265.25 12.5C264.72 12.5 264.211 12.7107 263.836 13.0858C263.461 13.4609 263.25 13.9696 263.25 14.5C263.25 15.0304 263.461 15.5391 263.836 15.9142C264.211 16.2893 264.72 16.5 265.25 16.5Z" stroke="black" stroke-opacity="0.56" style="stroke:black;stroke-opacity:0.56;" stroke-linecap="round" stroke-linejoin="round"/>
</g>
<path d="M238.797 35.4653H239.641C239.597 35.8696 239.481 36.2314 239.294 36.5508C239.106 36.8701 238.841 37.1235 238.499 37.311C238.156 37.4956 237.728 37.5879 237.215 37.5879C236.84 37.5879 236.499 37.5176 236.191 37.377C235.887 37.2363 235.625 37.0371 235.405 36.7793C235.185 36.5186 235.015 36.2065 234.895 35.8433C234.778 35.4771 234.719 35.0698 234.719 34.6216V33.9844C234.719 33.5361 234.778 33.1304 234.895 32.7671C235.015 32.4009 235.187 32.0874 235.409 31.8267C235.635 31.5659 235.906 31.3652 236.222 31.2246C236.539 31.084 236.895 31.0137 237.29 31.0137C237.773 31.0137 238.182 31.1045 238.516 31.2861C238.85 31.4678 239.109 31.7197 239.294 32.042C239.481 32.3613 239.597 32.7319 239.641 33.1538H238.797C238.756 32.855 238.68 32.5986 238.569 32.3848C238.458 32.168 238.299 32.001 238.094 31.8838C237.889 31.7666 237.621 31.708 237.29 31.708C237.006 31.708 236.755 31.7622 236.539 31.8706C236.325 31.979 236.145 32.1328 235.998 32.332C235.854 32.5312 235.746 32.77 235.673 33.0483C235.6 33.3267 235.563 33.6357 235.563 33.9756V34.6216C235.563 34.9351 235.595 35.2295 235.66 35.5049C235.727 35.7803 235.828 36.022 235.963 36.23C236.098 36.438 236.269 36.6021 236.477 36.7222C236.685 36.8394 236.931 36.8979 237.215 36.8979C237.576 36.8979 237.863 36.8408 238.077 36.7266C238.291 36.6123 238.452 36.4482 238.56 36.2344C238.671 36.0205 238.75 35.7642 238.797 35.4653ZM240.458 35.1753V35.0742C240.458 34.7314 240.508 34.4136 240.608 34.1206C240.708 33.8247 240.851 33.5684 241.039 33.3516C241.226 33.1318 241.453 32.9619 241.72 32.8418C241.986 32.7188 242.285 32.6572 242.616 32.6572C242.95 32.6572 243.25 32.7188 243.517 32.8418C243.787 32.9619 244.015 33.1318 244.203 33.3516C244.393 33.5684 244.538 33.8247 244.638 34.1206C244.737 34.4136 244.787 34.7314 244.787 35.0742V35.1753C244.787 35.5181 244.737 35.8359 244.638 36.1289C244.538 36.4219 244.393 36.6782 244.203 36.8979C244.015 37.1147 243.788 37.2847 243.521 37.4077C243.258 37.5278 242.959 37.5879 242.625 37.5879C242.291 37.5879 241.991 37.5278 241.724 37.4077C241.458 37.2847 241.229 37.1147 241.039 36.8979C240.851 36.6782 240.708 36.4219 240.608 36.1289C240.508 35.8359 240.458 35.5181 240.458 35.1753ZM241.271 35.0742V35.1753C241.271 35.4126 241.299 35.6367 241.355 35.8477C241.411 36.0557 241.494 36.2402 241.605 36.4014C241.72 36.5625 241.862 36.6899 242.032 36.7837C242.202 36.8745 242.399 36.9199 242.625 36.9199C242.848 36.9199 243.042 36.8745 243.209 36.7837C243.379 36.6899 243.52 36.5625 243.631 36.4014C243.743 36.2402 243.826 36.0557 243.882 35.8477C243.94 35.6367 243.97 35.4126 243.97 35.1753V35.0742C243.97 34.8398 243.94 34.6187 243.882 34.4106C243.826 34.1997 243.741 34.0137 243.627 33.8525C243.516 33.6885 243.375 33.5596 243.205 33.4658C243.038 33.3721 242.842 33.3252 242.616 33.3252C242.394 33.3252 242.197 33.3721 242.027 33.4658C241.86 33.5596 241.72 33.6885 241.605 33.8525C241.494 34.0137 241.411 34.1997 241.355 34.4106C241.299 34.6187 241.271 34.8398 241.271 35.0742ZM246.615 33.6899V37.5H245.798V32.7451H246.571L246.615 33.6899ZM246.448 34.9424L246.07 34.9292C246.073 34.604 246.116 34.3037 246.198 34.0283C246.28 33.75 246.401 33.5083 246.562 33.3032C246.724 33.0981 246.924 32.9399 247.165 32.8286C247.405 32.7144 247.683 32.6572 248 32.6572C248.222 32.6572 248.427 32.6895 248.615 32.7539C248.802 32.8154 248.965 32.9136 249.103 33.0483C249.24 33.1831 249.347 33.356 249.423 33.5669C249.5 33.7778 249.538 34.0327 249.538 34.3315V37.5H248.725V34.3711C248.725 34.1221 248.682 33.9229 248.597 33.7734C248.515 33.624 248.398 33.5156 248.246 33.4482C248.093 33.3779 247.915 33.3428 247.709 33.3428C247.469 33.3428 247.269 33.3853 247.107 33.4702C246.946 33.5552 246.817 33.6724 246.721 33.8218C246.624 33.9712 246.554 34.1426 246.51 34.3359C246.469 34.5264 246.448 34.7285 246.448 34.9424ZM249.529 34.4941L248.984 34.6611C248.987 34.4004 249.029 34.1499 249.111 33.9097C249.196 33.6694 249.318 33.4556 249.476 33.2681C249.637 33.0806 249.835 32.9326 250.069 32.8242C250.304 32.7129 250.572 32.6572 250.874 32.6572C251.128 32.6572 251.354 32.6909 251.55 32.7583C251.75 32.8257 251.917 32.9297 252.051 33.0703C252.189 33.208 252.293 33.3853 252.363 33.6021C252.434 33.8188 252.469 34.0767 252.469 34.3755V37.5H251.651V34.3667C251.651 34.1001 251.609 33.8936 251.524 33.7471C251.442 33.5977 251.325 33.4937 251.172 33.4351C251.023 33.3735 250.844 33.3428 250.636 33.3428C250.458 33.3428 250.299 33.3735 250.162 33.4351C250.024 33.4966 249.908 33.5815 249.814 33.6899C249.721 33.7954 249.649 33.917 249.599 34.0547C249.552 34.1924 249.529 34.3389 249.529 34.4941ZM254.508 33.6899V37.5H253.69V32.7451H254.464L254.508 33.6899ZM254.341 34.9424L253.963 34.9292C253.966 34.604 254.008 34.3037 254.09 34.0283C254.172 33.75 254.294 33.5083 254.455 33.3032C254.616 33.0981 254.817 32.9399 255.057 32.8286C255.297 32.7144 255.576 32.6572 255.892 32.6572C256.115 32.6572 256.32 32.6895 256.507 32.7539C256.695 32.8154 256.857 32.9136 256.995 33.0483C257.133 33.1831 257.24 33.356 257.316 33.5669C257.392 33.7778 257.43 34.0327 257.43 34.3315V37.5H256.617V34.3711C256.617 34.1221 256.575 33.9229 256.49 33.7734C256.408 33.624 256.291 33.5156 256.138 33.4482C255.986 33.3779 255.807 33.3428 255.602 33.3428C255.362 33.3428 255.161 33.3853 255 33.4702C254.839 33.5552 254.71 33.6724 254.613 33.8218C254.517 33.9712 254.446 34.1426 254.402 34.3359C254.361 34.5264 254.341 34.7285 254.341 34.9424ZM257.421 34.4941L256.876 34.6611C256.879 34.4004 256.922 34.1499 257.004 33.9097C257.089 33.6694 257.21 33.4556 257.369 33.2681C257.53 33.0806 257.728 32.9326 257.962 32.8242C258.196 32.7129 258.464 32.6572 258.766 32.6572C259.021 32.6572 259.247 32.6909 259.443 32.7583C259.642 32.8257 259.809 32.9297 259.944 33.0703C260.082 33.208 260.186 33.3853 260.256 33.6021C260.326 33.8188 260.361 34.0767 260.361 34.3755V37.5H259.544V34.3667C259.544 34.1001 259.501 33.8936 259.417 33.7471C259.334 33.5977 259.217 33.4937 259.065 33.4351C258.916 33.3735 258.737 33.3428 258.529 33.3428C258.35 33.3428 258.192 33.3735 258.054 33.4351C257.917 33.4966 257.801 33.5815 257.707 33.6899C257.613 33.7954 257.542 33.917 257.492 34.0547C257.445 34.1924 257.421 34.3389 257.421 34.4941ZM264.501 36.4014V32.7451H265.318V37.5H264.541L264.501 36.4014ZM264.655 35.3994L264.993 35.3906C264.993 35.707 264.959 36 264.892 36.2695C264.828 36.5361 264.722 36.7676 264.576 36.9639C264.429 37.1602 264.237 37.314 264 37.4253C263.763 37.5337 263.474 37.5879 263.134 37.5879C262.903 37.5879 262.69 37.5542 262.497 37.4868C262.307 37.4194 262.143 37.3154 262.005 37.1748C261.867 37.0342 261.76 36.8511 261.684 36.6255C261.611 36.3999 261.574 36.1289 261.574 35.8125V32.7451H262.387V35.8213C262.387 36.0352 262.411 36.2124 262.458 36.353C262.507 36.4907 262.573 36.6006 262.655 36.6826C262.74 36.7617 262.834 36.8174 262.937 36.8496C263.042 36.8818 263.15 36.8979 263.262 36.8979C263.607 36.8979 263.881 36.832 264.083 36.7002C264.286 36.5654 264.431 36.3853 264.519 36.1597C264.609 35.9312 264.655 35.6777 264.655 35.3994ZM267.371 33.7603V37.5H266.558V32.7451H267.327L267.371 33.7603ZM267.177 34.9424L266.839 34.9292C266.842 34.604 266.89 34.3037 266.984 34.0283C267.078 33.75 267.209 33.5083 267.379 33.3032C267.549 33.0981 267.751 32.9399 267.986 32.8286C268.223 32.7144 268.485 32.6572 268.772 32.6572C269.007 32.6572 269.218 32.6895 269.405 32.7539C269.593 32.8154 269.752 32.915 269.884 33.0527C270.019 33.1904 270.122 33.3691 270.192 33.5889C270.262 33.8057 270.297 34.0708 270.297 34.3843V37.5H269.48V34.3755C269.48 34.1265 269.443 33.9272 269.37 33.7778C269.297 33.6255 269.19 33.5156 269.049 33.4482C268.909 33.3779 268.736 33.3428 268.531 33.3428C268.329 33.3428 268.144 33.3853 267.977 33.4702C267.813 33.5552 267.671 33.6724 267.551 33.8218C267.434 33.9712 267.341 34.1426 267.274 34.3359C267.209 34.5264 267.177 34.7285 267.177 34.9424ZM272.416 32.7451V37.5H271.598V32.7451H272.416ZM271.537 31.4839C271.537 31.3521 271.576 31.2407 271.655 31.1499C271.737 31.0591 271.857 31.0137 272.016 31.0137C272.171 31.0137 272.29 31.0591 272.372 31.1499C272.457 31.2407 272.499 31.3521 272.499 31.4839C272.499 31.6099 272.457 31.7183 272.372 31.8091C272.29 31.897 272.171 31.9409 272.016 31.9409C271.857 31.9409 271.737 31.897 271.655 31.8091C271.576 31.7183 271.537 31.6099 271.537 31.4839ZM275.711 32.7451V33.3691H273.141V32.7451H275.711ZM274.011 31.5894H274.824V36.3223C274.824 36.4834 274.849 36.605 274.898 36.687C274.948 36.769 275.013 36.8232 275.092 36.8496C275.171 36.876 275.256 36.8892 275.347 36.8892C275.414 36.8892 275.484 36.8833 275.558 36.8716C275.634 36.8569 275.691 36.8452 275.729 36.8364L275.733 37.5C275.669 37.5205 275.584 37.5396 275.479 37.5571C275.376 37.5776 275.251 37.5879 275.105 37.5879C274.906 37.5879 274.723 37.5483 274.556 37.4692C274.389 37.3901 274.255 37.2583 274.156 37.0737C274.059 36.8862 274.011 36.6343 274.011 36.3179V31.5894ZM278.001 37.0078L279.324 32.7451H280.194L278.287 38.2339C278.243 38.3511 278.184 38.4771 278.111 38.6118C278.041 38.7495 277.95 38.8799 277.838 39.0029C277.727 39.126 277.592 39.2256 277.434 39.3018C277.279 39.3809 277.093 39.4204 276.876 39.4204C276.812 39.4204 276.729 39.4116 276.63 39.394C276.53 39.3765 276.46 39.3618 276.419 39.3501L276.415 38.6909C276.438 38.6938 276.475 38.6968 276.524 38.6997C276.577 38.7056 276.614 38.7085 276.634 38.7085C276.819 38.7085 276.976 38.6836 277.104 38.6338C277.233 38.5869 277.342 38.5063 277.43 38.3921C277.521 38.2808 277.598 38.127 277.663 37.9307L278.001 37.0078ZM277.03 32.7451L278.265 36.4365L278.476 37.2935L277.891 37.5923L276.142 32.7451H277.03Z" fill="black" fill-opacity="0.8" style="fill:black;fill-opacity:0.8;"/>
<path d="M333 20.5C333 19.4391 333.421 18.4217 334.172 17.6716C334.922 16.9214 335.939 16.5 337 16.5H345C346.061 16.5 347.078 16.9214 347.828 17.6716C348.579 18.4217 349 19.4391 349 20.5C349 21.0304 348.789 21.5391 348.414 21.9142C348.039 22.2893 347.53 22.5 347 22.5H335C334.47 22.5 333.961 22.2893 333.586 21.9142C333.211 21.5391 333 21.0304 333 20.5Z" stroke="black" stroke-opacity="0.65" style="stroke:black;stroke-opacity:0.65;" stroke-linejoin="round"/>
<path d="M341 12.5C342.657 12.5 344 11.1569 344 9.5C344 7.84315 342.657 6.5 341 6.5C339.343 6.5 338 7.84315 338 9.5C338 11.1569 339.343 12.5 341 12.5Z" stroke="black" stroke-opacity="0.65" style="stroke:black;stroke-opacity:0.65;"/>
<path d="M331.24 34.9907H329.53V34.3008H331.24C331.571 34.3008 331.839 34.248 332.044 34.1426C332.249 34.0371 332.398 33.8906 332.492 33.7031C332.589 33.5156 332.637 33.3018 332.637 33.0615C332.637 32.8418 332.589 32.6353 332.492 32.4419C332.398 32.2485 332.249 32.0933 332.044 31.9761C331.839 31.856 331.571 31.7959 331.24 31.7959H329.728V37.5H328.88V31.1016H331.24C331.723 31.1016 332.132 31.1851 332.466 31.3521C332.8 31.519 333.053 31.7505 333.226 32.0464C333.399 32.3394 333.485 32.6748 333.485 33.0527C333.485 33.4629 333.399 33.813 333.226 34.103C333.053 34.3931 332.8 34.6143 332.466 34.7666C332.132 34.916 331.723 34.9907 331.24 34.9907ZM335.248 33.4922V37.5H334.435V32.7451H335.226L335.248 33.4922ZM336.733 32.7188L336.729 33.4746C336.661 33.46 336.597 33.4512 336.535 33.4482C336.477 33.4424 336.409 33.4395 336.333 33.4395C336.146 33.4395 335.98 33.4688 335.836 33.5273C335.693 33.5859 335.571 33.668 335.472 33.7734C335.372 33.8789 335.293 34.0049 335.234 34.1514C335.179 34.2949 335.142 34.4531 335.125 34.626L334.896 34.7578C334.896 34.4707 334.924 34.2012 334.979 33.9492C335.038 33.6973 335.127 33.4746 335.248 33.2812C335.368 33.085 335.52 32.9326 335.705 32.8242C335.892 32.7129 336.115 32.6572 336.373 32.6572C336.431 32.6572 336.499 32.6646 336.575 32.6792C336.651 32.6909 336.704 32.7041 336.733 32.7188ZM337.181 35.1753V35.0742C337.181 34.7314 337.231 34.4136 337.331 34.1206C337.43 33.8247 337.574 33.5684 337.761 33.3516C337.949 33.1318 338.176 32.9619 338.442 32.8418C338.709 32.7188 339.008 32.6572 339.339 32.6572C339.673 32.6572 339.973 32.7188 340.24 32.8418C340.509 32.9619 340.738 33.1318 340.925 33.3516C341.116 33.5684 341.261 33.8247 341.36 34.1206C341.46 34.4136 341.51 34.7314 341.51 35.0742V35.1753C341.51 35.5181 341.46 35.8359 341.36 36.1289C341.261 36.4219 341.116 36.6782 340.925 36.8979C340.738 37.1147 340.511 37.2847 340.244 37.4077C339.98 37.5278 339.682 37.5879 339.348 37.5879C339.014 37.5879 338.713 37.5278 338.447 37.4077C338.18 37.2847 337.952 37.1147 337.761 36.8979C337.574 36.6782 337.43 36.4219 337.331 36.1289C337.231 35.8359 337.181 35.5181 337.181 35.1753ZM337.994 35.0742V35.1753C337.994 35.4126 338.022 35.6367 338.078 35.8477C338.133 36.0557 338.217 36.2402 338.328 36.4014C338.442 36.5625 338.584 36.6899 338.754 36.7837C338.924 36.8745 339.122 36.9199 339.348 36.9199C339.57 36.9199 339.765 36.8745 339.932 36.7837C340.102 36.6899 340.243 36.5625 340.354 36.4014C340.465 36.2402 340.549 36.0557 340.604 35.8477C340.663 35.6367 340.692 35.4126 340.692 35.1753V35.0742C340.692 34.8398 340.663 34.6187 340.604 34.4106C340.549 34.1997 340.464 34.0137 340.35 33.8525C340.238 33.6885 340.098 33.5596 339.928 33.4658C339.761 33.3721 339.564 33.3252 339.339 33.3252C339.116 33.3252 338.92 33.3721 338.75 33.4658C338.583 33.5596 338.442 33.6885 338.328 33.8525C338.217 34.0137 338.133 34.1997 338.078 34.4106C338.022 34.6187 337.994 34.8398 337.994 35.0742ZM343.615 37.5H342.802V32.332C342.802 31.9717 342.872 31.667 343.013 31.418C343.153 31.1689 343.354 30.98 343.615 30.8511C343.875 30.7222 344.185 30.6577 344.542 30.6577C344.753 30.6577 344.959 30.6841 345.162 30.7368C345.364 30.7866 345.572 30.8496 345.786 30.9258L345.649 31.6113C345.515 31.5586 345.358 31.5088 345.179 31.4619C345.003 31.4121 344.81 31.3872 344.599 31.3872C344.25 31.3872 343.999 31.4663 343.843 31.6245C343.691 31.7798 343.615 32.0156 343.615 32.332V37.5ZM344.586 32.7451V33.3691H342.05V32.7451H344.586ZM346.186 32.7451V37.5H345.373V32.7451H346.186ZM348.405 30.75V37.5H347.587V30.75H348.405ZM351.683 37.5879C351.352 37.5879 351.052 37.5322 350.782 37.4209C350.516 37.3066 350.286 37.147 350.092 36.9419C349.902 36.7368 349.755 36.4937 349.653 36.2124C349.55 35.9312 349.499 35.6235 349.499 35.2896V35.105C349.499 34.7183 349.556 34.374 349.67 34.0723C349.785 33.7676 349.94 33.5098 350.136 33.2988C350.333 33.0879 350.555 32.9282 350.804 32.8198C351.053 32.7114 351.311 32.6572 351.578 32.6572C351.917 32.6572 352.21 32.7158 352.457 32.833C352.706 32.9502 352.909 33.1143 353.067 33.3252C353.226 33.5332 353.343 33.7793 353.419 34.0635C353.495 34.3447 353.533 34.6523 353.533 34.9863V35.3511H349.982V34.6875H352.72V34.626C352.708 34.415 352.665 34.21 352.588 34.0107C352.515 33.8115 352.398 33.6475 352.237 33.5186C352.076 33.3896 351.856 33.3252 351.578 33.3252C351.393 33.3252 351.223 33.3647 351.068 33.4438C350.913 33.52 350.779 33.6343 350.668 33.7866C350.557 33.939 350.47 34.125 350.409 34.3447C350.347 34.5645 350.316 34.8179 350.316 35.105V35.2896C350.316 35.5151 350.347 35.7275 350.409 35.9268C350.473 36.123 350.565 36.2959 350.686 36.4453C350.809 36.5947 350.957 36.7119 351.129 36.7969C351.305 36.8818 351.504 36.9243 351.727 36.9243C352.014 36.9243 352.257 36.8657 352.457 36.7485C352.656 36.6313 352.83 36.4746 352.979 36.2783L353.472 36.6694C353.369 36.8247 353.239 36.9727 353.081 37.1133C352.922 37.2539 352.728 37.3682 352.496 37.4561C352.268 37.5439 351.997 37.5879 351.683 37.5879Z" fill="black" fill-opacity="0.8" style="fill:black;fill-opacity:0.8;"/>
<defs>
<clipPath id="clip0_574_2158">
<rect width="24" height="24" fill="white" style="fill:white;fill-opacity:1;" transform="translate(245.25 2.5)"/>
</clipPath>
</defs>
</svg>
